PathFileType	4	(X/Y/Z)	C:/Users/beibeiliu/ov580/test_trc/User3\sequence.5_training_dense_left.trc
DataRate	CameraRate	NumFrames	NumMarkers	Units	OrigDataRate	OrigDataStartFrame	OrigNumFrames
120	120	23	19	mm	120	72	119
Frame#	Time	ThumbCMC			ThumbMCP			ThumbIP			ThumbTip			IndexMCP			IndexPIP			IndexTip			MiddleMCP			MiddlePIP			MiddleTip			RingMCP			RingPIP			RingTip			PinkyMCP			PinkyPIP			PinkyTip			BackHand1			BackHand2			BackHand3	
		X0	Y0	Z0	X1	Y1	Z1	X2	Y2	Z2	X3	Y3	Z3	X4	Y4	Z4	X5	Y5	Z5	X6	Y6	Z6	X7	Y7	Z7	X8	Y8	Z8	X9	Y9	Z9	X10	Y10	Z10	X11	Y11	Z11	X12	Y12	Z12	X13	Y13	Z13	X14	Y14	Z14	X15	Y15	Z15	X16	Y16	Z16	X17	Y17	Z17	X18	Y18	Z18	
71	0.591667	-178.5	17.5843	-13.8274	-169.548	4.05013	-40.9488	-177.957	1.59853	-72.1165	-202.223	0.113116	-88.5113	-192.776	44.9855	-81.024	-191.415	14.9883	-90.5183	-194.809	11.1464	-57.0926	-210.735	43.0265	-84.0388	-209.411	10.3799	-89.8059	-208.975	6.45959	-47.9073	-228.996	33.9302	-78.1834	-229.349	6.23825	-77.8503	-222.425	8.54398	-40.469	-248.905	32.2134	-66.4318	-240.48	4.14015	-66.4687	-231.606	6.31943	-35.4959	-233.163	58.1722	-24.5159	-234.37	47.6642	6.77664	-197.532	50.5434	-9.12209	
72	0.6	-180.364	12.3382	-14.6946	-174.942	0.148297	-46.6442	-180.725	-5.57205	-78.2773	-208.726	-2.72508	-89.3871	-196.173	39.9592	-87.0602	-199.283	9.9964	-96.3553	-197.339	5.05939	-63.3754	-217.89	36.5356	-90.4132	-220.323	4.45781	-90.2023	-216.407	3.30889	-52.9342	-235.452	31.4569	-81.0644	-233.948	0.80948	-77.6656	-223.885	5.34331	-44.2592	-249.119	30.4616	-69.2503	-246.744	1.93576	-68.0427	-239.102	4.21151	-36.2396	-235.064	58.0427	-25.7445	-232.774	47.9311	5.97128	-201.048	48.2256	-12.7984	
73	0.608333	-184.045	1.81792	-13.6678	-181.586	-12.3232	-46.1108	-190.43	-22.9424	-76.4752	-214.543	-25.7682	-86.1702	-199.042	18.4499	-86.9714	-201.751	-14.18	-91.7726	-203.247	-7.75795	-57.3509	-219.827	15.8437	-88.8401	-225.177	-14.9679	-88.0987	-219.935	-8.29389	-46.4446	-238.007	13.6727	-78.66	-237.612	-17.6182	-69.9243	-228.528	-6.54958	-39.1355	-254.07	9.15095	-69.1778	-251.788	-15.9648	-58.0008	-237.804	-2.74826	-32.6993	-232.594	44.8808	-31.8477	-237.095	41.171	-0.856293	-202.369	37.3681	-18.5353	
74	0.616667	-184.725	-7.42285	-9.10199	-176.641	-31.0296	-36.1342	-189.231	-46.0994	-63.5689	-213.319	-51.9259	-72.2187	-201.051	-9.6409	-81.4946	-203.279	-40.7081	-77.6504	-197.678	-26.5875	-46.9946	-221.069	-14.7057	-83.6081	-222.812	-42.8248	-71.803	-214.129	-27.39	-36.8123	-237.028	-13.478	-70.1622	-237.347	-42.9944	-52.8423	-227.72	-27.2169	-29.2747	-256.03	-16.9444	-58.3206	-247.116	-37.4014	-45.5141	-235.614	-19.6865	-22.4288	-238.38	25.9497	-28.7276	-232.715	30.7895	1.06648	-201.665	24.511	-17.6042	
75	0.625	-175.708	-10.8401	-1.71441	-168.327	-38.0517	-21.7554	-172.48	-60.085	-42.4433	-198.558	-71.847	-49.6828	-194.956	-32.2026	-70.2795	-190.111	-60.4091	-54.4632	-186.169	-37.6211	-31.702	-211.096	-39.6545	-69.3157	-207.998	-65.3897	-50.0798	-205.696	-35.2411	-21.311	-230.312	-43.105	-55.4198	-219.407	-63.3346	-34.7803	-215.783	-35.0692	-11.413	-243.68	-41.0789	-43.6942	-233.812	-58.3073	-23.6924	-223.752	-32.9756	-7.30456	-233.164	7.07722	-32.1552	-233.687	19.1332	2.92308	-203.899	16.986	-13.9343	
76	0.633333	-167.429	-5.50568	3.46868	-150.167	-31.67	-7.13352	-152.577	-58.6391	-23.445	-170.843	-78.7998	-28.8625	-170.057	-41.1332	-55.6407	-159.458	-64.6967	-33.5799	-171.442	-39.651	-16.1882	-188.365	-57.6335	-52.843	-180.495	-73.7747	-26.5041	-185.617	-40.504	-6.34646	-204.41	-58.8177	-40.9637	-195.784	-71.3411	-11.0759	-198.665	-43.3425	3.4242	-221.442	-63.7509	-28.0772	-207.846	-67.7945	-4.90555	-207.678	-36.0034	8.80323	-227.887	-9.27084	-25.2003	-236.682	5.00177	-1.64642	-201.896	9.45365	-17.4428	
77	0.641667	-167.762	8.32012	7.87497	-139.886	-11.8206	0.111054	-125.366	-38.9803	-8.22505	-136.961	-63.23	-10.5814	-149.975	-37.4399	-43.7497	-133.906	-49.3634	-16.3581	-156.397	-25.3261	-5.41291	-159.683	-53.7239	-39.5172	-146.335	-61.5022	-11.7462	-168.798	-32.8025	3.78915	-175.327	-62.2432	-25.1107	-165.819	-62.3246	4.98173	-178.814	-33.0822	14.6449	-187.826	-67.3894	-14.82	-176.641	-60.2413	10.1174	-185.993	-35.2448	16.7222	-217.844	-22.025	-26.0682	-230.521	-5.95757	-0.224821	-199.621	6.66969	-17.8097	
78	0.65	-169.808	28.8491	4.90951	-136.28	16.0353	-1.36041	-115.467	-4.36869	-4.23997	-117.99	-30.7701	-2.66585	-132.419	-16.5256	-38.2317	-115.211	-16.8589	-12.2898	-144.128	-3.68404	-1.93283	-141.613	-37.6374	-32.0608	-125.193	-31.7247	-0.696814	-154.898	-10.549	7.79771	-151.478	-46.4716	-19.155	-140.515	-40.9754	12.4175	-161.265	-18.9568	20.5935	-163.399	-55.1956	-7.17067	-152.58	-40.1796	18.0609	-171.752	-20.6049	23.8492	-202.529	-24.1641	-20.2304	-221.24	-13.4523	-0.815432	-196.93	10.3547	-17.9005	
79	0.658333	-181.953	39.8621	-2.3408	-147.833	45.2625	-7.53314	-117.352	34.8078	-10.871	-108.796	7.65656	-5.69962	-132.78	9.63284	-42.2936	-117.148	17.9323	-14.097	-146.23	22.6967	-5.93447	-128.638	-10.0998	-32.5286	-115.024	3.52162	-7.24629	-151.543	8.29036	6.01665	-131.19	-19.8505	-17.7516	-127.126	-9.64669	10.2469	-155.152	3.92697	17.9688	-140.847	-32.9292	-5.30534	-135.349	-17.5908	17.7556	-161.981	-5.3834	23.4517	-191.703	-24.1828	-18.1876	-214.147	-16.9049	-2.62597	-201.529	10.3893	-22.5927	
80	0.666667	-197.628	44.3337	-8.68369	-171.789	66.5604	-17.1783	-139.922	61.8339	-23.5087	-121.822	45.3227	-15.9807	-139.421	35.0774	-51.8781	-129.485	48.8548	-25.0781	-160.602	41.5984	-17.2393	-130.842	18.3799	-40.5058	-122.339	35.4843	-13.4061	-157.472	28.1926	-1.73169	-131.717	7.70101	-26.2964	-125.522	24.1669	-1.89141	-159.623	22.7904	8.95348	-127.733	-5.97019	-8.77563	-131.132	12.6546	7.76883	-159.22	9.78588	19.3468	-179.367	-20.8549	-23.6386	-205.14	-16.4151	-0.894483	-205.508	9.74502	-23.8501	
81	0.675	-214.262	42.1892	-13.5617	-193.787	66.9352	-28.1806	-165.034	75.0363	-38.4461	-140.878	64.8684	-31.6023	-160.243	44.3538	-62.6334	-147.741	63.9197	-41.7306	-171.885	44.8122	-25.5874	-144.87	36.4015	-53.6028	-139.652	57.4887	-29.2585	-164.62	33.3658	-9.81637	-136.547	23.128	-36.7	-131.937	41.6712	-13.5395	-164.96	30.4174	0.0992125	-131.814	16.8758	-22.5805	-135.091	32.9867	-3.03072	-158.498	16.7201	12.2088	-174.228	-17.1663	-23.8476	-192.046	-22.0723	0.706678	-206.111	3.22899	-25.0636	
82	0.683333	-220.498	27.4833	-14.9608	-210.526	52.935	-31.1649	-183.595	67.3573	-48.6157	-158.696	60.431	-45.342	-176.52	38.146	-72.3922	-168.115	62.5616	-53.8619	-181.396	40.3123	-32.2938	-158.118	29.6213	-63.8299	-153.917	55.8254	-40.3201	-172.25	29.1592	-19.333	-144.511	24.8635	-48.9446	-141.158	44.6282	-26.8728	-167.895	30.8544	-9.71684	-136.299	14.5865	-33.6538	-137.989	37.0943	-15.4164	-156.245	20.1197	1.36378	-173.405	-19.9042	-29.8164	-187.869	-27.6287	-0.292882	-207.204	-11.1404	-22.4947	
83	0.691667	-221.443	10.5192	-9.94569	-219.687	37.0475	-35.9949	-198.924	48.6433	-56.34	-171.119	48.7346	-59.051	-191.055	19.1599	-76.5489	-181.711	46.6547	-62.2617	-191.191	26.8643	-37.2624	-165.809	17.5184	-73.3285	-162.537	42.7297	-54.4107	-175.621	20.702	-27.5991	-153.812	12.2617	-59.0016	-150.617	37.2676	-41.2137	-169.222	19.1088	-16.5745	-138.989	7.5587	-44.1181	-141.451	30.5216	-29.0375	-160.949	14.5254	-9.8339	-169.045	-31.2352	-28.2256	-177.271	-36.5424	3.59878	-205.95	-25.1952	-20.5691	
84	0.7	-223.353	-4.3867	-11.3629	-224.901	17.0929	-38.9395	-213.347	30.2308	-65.462	-184.236	30.576	-70.22	-202.328	-4.78518	-78.0687	-192.73	25.5808	-66.3813	-199.219	11.1989	-39.9918	-180.767	-2.73429	-78.6672	-174.227	25.2597	-67.8525	-184.189	7.74859	-32.0353	-160.898	-4.23638	-66.7604	-162.931	23.0937	-50.6031	-175.591	6.20122	-24.8087	-148.758	-5.14738	-55.7997	-149.155	18.7558	-42.2639	-163.934	6.80733	-18.7321	-168.315	-46.3639	-26.8193	-174.056	-44.0021	8.28851	-205.863	-39.7082	-14.2918	
85	0.708333	-226.398	-16.5955	-4.17218	-229.555	-3.76953	-36.0147	-222.616	3.94384	-63.607	-197.919	4.36554	-76.9591	-213.481	-30.3171	-74.8347	-207.294	-1.04243	-74.4953	-205.806	-7.74994	-40.9749	-194.246	-32.4643	-77.1083	-191.08	1.45883	-72.3745	-192.787	-5.82514	-36.2684	-171.498	-28.7793	-69.6903	-175.385	1.02287	-61.3161	-180.394	-11.674	-28.5886	-155.377	-25.6966	-62.0034	-160.85	-1.52081	-53.9272	-168.506	-8.6566	-21.4471	-172.572	-59.6249	-18.6393	-175.095	-54.1841	9.93239	-208.615	-51.8933	-1.80155	
86	0.716667	-232.428	-26.674	3.29548	-241.839	-17.6732	-30.5875	-242.29	-13.7562	-59.5192	-215.119	-21.656	-78.5509	-232.541	-54.9119	-63.3832	-228.254	-22.0403	-70.1508	-220.54	-24.6975	-35.8693	-210.496	-58.5924	-68.2649	-209.223	-26.4057	-75.2265	-203.63	-21.5428	-32.7904	-193.571	-54.4825	-64.7998	-189.774	-23.6936	-61.5212	-193.138	-26.5297	-31.4265	-176.619	-53.1106	-58.2409	-181.066	-25.6067	-56.8397	-179.973	-23.2383	-27.4807	-186.101	-73.4649	-9.05582	-185.04	-65.6654	17.0762	-220.048	-63.439	8.84946	
87	0.725	-244.502	-25.7515	10.3697	-255.81	-19.6335	-23.8915	-256.096	-24.748	-52.347	-240.348	-34.059	-74.2201	-260.214	-63.4495	-51.5959	-249.479	-36.2409	-63.6697	-238.414	-31.3575	-30.6407	-242.847	-70.0611	-58.125	-235.087	-39.7063	-68.5495	-223.644	-28.5522	-33.6455	-218.764	-73.0966	-56.0058	-214.296	-42.9698	-61.1182	-213.754	-38.6416	-26.8168	-202.905	-72.7369	-50.4869	-199.45	-43.981	-55.0812	-198.044	-37.2571	-27.3725	-210.018	-85.6895	1.51038	-199.068	-70.4559	28.4653	-236.474	-64.8976	21.0101	
88	0.733333	-255.814	-16.4862	14.3762	-264.368	-11.0784	-17.2427	-274.23	-14.5162	-49.8321	-259.252	-36.8528	-64.8521	-288.895	-53.3726	-35.6738	-271.773	-29.4461	-54.5063	-255.574	-26.7057	-28.0911	-272.831	-66.2652	-47.62	-255.761	-41.2661	-59.9496	-241.174	-28.2222	-29.2798	-252.932	-75.7435	-42.531	-240.685	-50.7853	-54.4536	-231.907	-41.2529	-23.2951	-239.354	-81.1252	-40.254	-229.197	-58.2191	-50.7269	-218.061	-45.8763	-25.8214	-245.498	-82.1005	15.0701	-226.941	-72.9099	36.3323	-262.211	-53.5463	28.1186	
89	0.741667	-255.959	-3.01113	13.7284	-264.407	3.46561	-17.6068	-274.089	-0.366867	-47.4356	-270.534	-19.255	-63.8064	-302.832	-29.2702	-32.552	-281.455	-15.2401	-53.2535	-264.74	-10.0273	-24.3652	-293.539	-46.9321	-42.4643	-270.885	-28.1817	-57.6893	-248.984	-23.0043	-26.7342	-278.517	-59.0695	-38.9258	-254.439	-44.0268	-51.4347	-245.331	-33.4756	-21.1515	-263.916	-75.4703	-34.2217	-248.252	-54.4448	-47.2155	-238.294	-42.7202	-20.6318	-267.916	-69.3911	18.342	-246.521	-64.259	40.2969	-274.487	-33.7814	32.4453	
90	0.75	-248.704	15.3136	12.6674	-255.488	19.3913	-20.6197	-265.386	21.0183	-53.6456	-269.212	-5.09175	-65.5793	-303.417	-1.9159	-34.9309	-280.731	3.7342	-59.2337	-261.383	2.91845	-28.4621	-299.972	-19.9255	-40.0411	-274.862	-13.6985	-61.3593	-251.339	-12.9347	-26.5963	-289.53	-36.1668	-37.7327	-260.287	-30.1446	-52.1194	-248.627	-25.2598	-17.1781	-279.54	-55.2382	-38.5637	-259.735	-41.8689	-47.8856	-246.039	-34.9497	-22.6852	-283.578	-41.4244	17.4101	-262.591	-47.3922	37.1571	-277.528	-8.50667	31.7519	
91	0.758333	-239.199	29.0636	9.63139	-239.659	37.0553	-24.4429	-246.582	36.1263	-54.7387	-257.35	14.782	-68.8857	-290.904	29.7037	-45.9891	-267.59	22.1062	-62.8555	-252.321	17.999	-33.2406	-295.525	10.729	-45.1179	-264.401	4.78959	-63.4118	-248.691	-1.33018	-28.6738	-289.312	-10.8819	-47.2415	-261.97	-17.9485	-54.0742	-249.623	-15.644	-22.1022	-288.149	-29.7508	-35.7234	-261.17	-29.4799	-47.1046	-248.487	-27.2291	-18.1095	-291.939	-14.001	13.8179	-274.493	-22.1246	36.3202	-274.649	13.8731	24.2506	
92	0.766667	-225.907	35.1925	7.36778	-223.746	39.7029	-24.6233	-230.764	42.4427	-58.3712	-246.785	23.5179	-69.7554	-273.853	49.2204	-47.6009	-251.046	34.702	-67.3887	-241.043	26.0093	-39.2272	-284.853	30.6732	-52.4011	-258.836	15.7353	-67.3078	-243.409	9.11411	-29.9991	-285.508	9.73523	-49.548	-258.905	-4.88155	-55.3038	-246.878	-3.91443	-26.1933	-288.947	-6.98675	-42.1348	-262.735	-14.7997	-48.9745	-252.052	-14.1521	-18.3789	-291.063	9.43821	9.37294	-273.851	0.435147	36.2277	-264.722	30.0488	22.5307	
93	0.775	-214.697	33.4618	3.85086	-209.941	37.8324	-31.5227	-213.917	36.4298	-58.8592	-231.818	25.613	-77.844	-250.7	62.8285	-53.4555	-234.569	40.6771	-73.5157	-227.396	29.854	-39.9905	-265.301	45.9782	-61.7914	-247.145	23.7229	-73.2631	-239.529	11.4456	-35.8752	-275.039	24.2268	-56.6472	-256.069	4.70639	-60.1313	-243.442	4.84513	-27.1243	-281.711	13.3209	-46.5112	-259.679	-4.23851	-51.1073	-252.971	-5.82653	-19.8654	-280.855	34.2652	4.15434	-269.498	19.3735	29.0331	-251.344	45.5152	17.2943	
